<?xml version="1.0" encoding="UTF-8"?>
<svg id="Capa_4" xmlns="http://www.w3.org/2000/svg" version="1.1" viewBox="0 0 1052.7 969.47">
  <!-- Generator: Adobe Illustrator 30.5.1, SVG Export Plug-In . SVG Version: 2.1.4 Build 3)  -->
  <defs>
    <style>
      .st0 {
        fill: none;
      }

      .st1 {
        fill: #f8ea3a;
      }
    </style>
  </defs>
  <g>
    <path class="st1" d="M154.87,409.21c2.61,1.5,12.75,7.35,23.18,4.05,3.16-1,5.85-2.68,8.14-4.74-9.75,2.6-20.66,2.33-29.45-1.18-7.66-3.06-13.61-8.53-18.21-15.53,3.94,7.15,9.22,13.29,16.35,17.4Z"/>
    <path class="st1" d="M307.95,344.45c.53,6.7.63,12.58.75,23.55.19-8.27-.11-16.14-.75-23.55Z"/>
    <path d="M308.77,373.74c-.02-2.07-.04-3.96-.06-5.73-.12-10.97-.22-16.85-.75-23.55-.11-1.45-.25-2.93-.4-4.51-1.25-12.5-2.88-19.59-4.28-35.71-.78-8.99-1.11-16.35-1.27-21.11-36.55,19.97-73.11,39.94-109.66,59.91,1.09,2.5,2.09,5.2,2.95,8.09,5.08,17.16,2.51,32.87-.36,43.04-1.91,2.66-8.69,11.38-20.14,13.29-10.8,1.79-19.64-3.49-25.29-6.86,0,0-6.22-3.71-10.97-8.79-13.04-13.94-11.22-40.78-12.13-57.34-1.57-28.53,1.75-80.81,25.03-89.17,1.48-.53,7.27-2.4,13.51-.39,12.95,4.15,17.46,21.61,19.63,29.98,1.4,5.41,2.91,13.93,1.9,24.76,36.82-22.43,73.64-44.86,110.46-67.29.73-10.67.81-26.55-3.17-45.07-3.11-14.5-15.49-72.1-62.58-95.25-43.12-21.2-89.29-.55-105.98,6.6-66.84,28.64-92.56,95.86-104.85,127-6.55,16.6-17.55,48.98-19.88,92.16-4.5,83.61,23.39,210.11,97.15,229.94,11.68,3.14,31.59,5.51,60.04-5.59-5.3,0-11.42-.28-18.05-1.11,0,0-24.34-3.24-43.91-14.12-26-14.46-21.25-45.24-48.19-113.43-18.88-47.78-28.82-51.94-27.08-73.91,2.39-30.21,22.16-34.78,48.93-77.8,40.8-65.56,25.8-104.6,61.71-123.86,21.39-11.47,44.59-7.2,65.57-3.34,16.05,2.95,60.35,11.1,75.52,45.74,5.67,12.95,5.44,25.4,4.62,33.03-24.6,17.77-49.21,35.54-73.81,53.31-.7-5.82-3.05-18.37-12.7-29.84-12.69-15.09-30.23-17.44-36.82-18.41-7.49-1.1-19.84-2.91-29.25,2.22-15.51,8.47-16.45,32.22-16.46,89.82-.02,94.68,2.53,105.09,12.17,115.89,17.92,20.06,51.66,31.74,72,19.71,14.81-8.76,19.27-28.16,22.97-44.27,4.57-19.87,2.97-36.9,1.09-47.54,27.55-11.11,55.1-22.23,82.66-33.34,1.5,15.75.51,28.9-1.08,39.05-9.55,61.03-50.17,75.78-53.77,118.23-.52,6.11-1.48,27.05-16.13,39.36-1.58,1.32-2.98,2.27-3.89,2.85,7.15.62,20.09.68,33.17-6.19,8.37-4.4,13.91-11.34,25-25.22,0,0,23.33-29.22,27.08-51.73.36-2.14.61-4.3.61-4.3.42-3.11-.19.44-.85-59.2Z"/>
  </g>
  <path d="M767.57,699.79l-92.95-16.41,34.66-262.51c4.58-.09,11.15.29,18.66,2.54,6.54,1.96,11.66,4.7,15.24,6.98,9.61-.25,23.23.5,38.72,5.08,20.45,6.04,35.03,16.06,43.5,22.94,7.54-3.56,20.92-8.59,38.03-8.3,29.36.48,49.41,16.27,55.58,21.55,7.03-3.55,43.49-21.09,82.52-5.71,8.57,3.38,36.22,14.27,46.98,42.53,4.64,12.2,4.52,23.4,3.81,30.47-9.56,66.65-19.12,133.31-28.69,199.96-30.31-4.95-60.8-9.82-91.47-14.59-55.34-8.62-110.22-16.79-164.6-24.52Z"/>
  <path d="M698.78,471.03c-.27-14.72-.66-29.32-1.15-43.8h-7.1c-39.46,4.44-78.93,8.89-118.39,13.33.73,25.71,1.45,51.41,2.18,77.12.21,16.45.42,32.9.63,49.35-.1,4.4-.21,8.79-.31,13.19-.24.51-.9,1.73-2.26,2.34-2.08.93-4.18-.28-5.01-.76-2.11-1.22-3.01-3.15-3.31-3.91-.4-4.95-.95-12.55-1.33-21.84-.85-21.08-.18-35.1.15-51.38.25-12.02.4-29.53-.18-51.2-41.77,5.38-83.54,10.76-125.31,16.14-1.57,19.91-2.55,48.27.74,82.01,6.54,67.06,26.95,125.04,30.8,124.21,1.32-.29-10.84-51.39-7.39-78.81.16-1.26.76-5.72,1.2-11.88,1.08-15.02.25-26.3,0-29.99-.68-10.28-1.1-26.67.16-53.32,25.29-8.04,50.57-16.08,75.86-24.12.85,10.68,1.79,27.28,1.27,47.61-1.24,48.2-9.58,74.03,2.54,81.89,5.94,3.85,14.12,1.65,30.09-2.65,15.05-4.05,23.08-6.21,28.63-12.9,13.55-16.32-7.38-35.82,4.76-66.49,4.93-12.44,11.91-18.16,9.84-28.58-1.86-9.37-9.69-15.81-16.19-19.84,24.23-8.68,48.46-17.35,72.68-26.03-4.11,8.36-9.46,21.04-12.7,37.14-5.4,26.83,4.69,39.9,4.44,84.75-.1,18.79-1.73,32.57-11.08,38.86-7.04,4.74-15.26,3.06-16.29,6.86-1.93,7.11,25.81,16.79,24.04,24.43-1.14,4.89-13.64,7.25-16.66,4.28-1.08-1.06.21-2.67-.95-4.28-2.06-2.86-9.4-2.29-14.92.63-6.48,3.43-7.39,8.49-10.16,8.25-2.19-.19-4.89-3.63-7.3-17.46-1.31,6.32-4.36,15.79-12.38,22.85-4.52,3.98-7.1,4.11-18.09,8.57-14.68,5.96-44.73,19.79-53.92,17.79-.1-.02-.99-.29-2.19-.5-5.37-.94-10.87-2.6-16.38-5.22-10.38-4.94-18-11.99-23.49-18.76-2.48-3.06-3.75-3.62-4.21-5.29-1.41-5.18,3.74-9.02,5.91-15.17,2.57-7.25-.8-12.6-2.86-20.95-5.45-22.12,7.13-29.43,1.43-45.23-5.11-14.16-21.13-24.69-27.14-21.42-7.87,4.29.04,33.07,4.03,46.16-12.72-41.96-18.08-50.94-20.54-50.45-6.17,1.25,4.68,62.28,15.24,102.2,3.65,13.8,8.45,29.55,22.57,41.73,10.58,9.13,21.8,12.28,26.6,13.57,30.66,8.26,60.17-5.03,61.98-5.88,7.37-3.44,15.16-8.42,28.12-9.81,6.85-.74,12.61-.2,16.46.39,13.67-1.35,24.88-3.27,33-4.88,16.41-3.27,30.13-7.1,40.5-10.04,4.19-1.19,7.67-2.22,10.13-2.96,3.24-64.26,4.46-130.94,3.17-199.86Z"/>
  <path d="M305.17,552.28c43.72-9.04,87.44-18.09,131.17-27.13,5.72,33.8,10.8,69.22,15,106.16,2.47,21.74,4.52,43.02,6.19,63.8,43.17-6.51,86.33-13.01,129.5-19.52,3.49,31.9,6.98,63.8,10.47,95.7l-252.33,51.42c-2.04-31.05-5.02-63.43-9.19-97.01-7.77-62.61-18.54-120.56-30.8-173.42Z"/>
  <path d="M309.75,550.33c-12.32-13.69-38.48-42.75-76.81-45.96-14.3-1.2-25.43,1.46-31.15,3.11-31.08,8.95-96.95,30.02-182.97,59.55,44.38,135.22,68.11,205.79,81.73,245.49.85,2.48,2.23,6.49,4.04,11.81,8.32,24.43,14.91,44.55,16.68,50.04,10.49,32.51,22.1,79.68,25.84,95.11,47.93-17.82,95.85-35.64,143.78-53.46-13.01-37.14-26.03-74.27-39.04-111.41,13.49.61,41.3-.2,65.7-18.09,39.65-29.07,40.51-81.38,40.94-107.6.12-6.98.17-74.25-48.74-128.59ZM331.5,652.26c4.11,50.42-17.82,118.41-63.79,130.42-16.7,4.36-32.52.28-43.57-4.13-1.6,32.16-3.2,64.32-4.8,96.48-18.43,13-36.86,26-55.29,39-40.66-111.63-81.33-223.26-121.99-334.89,56.82,1.44,87.2-11.47,104.55-24.01,0,0,35.85-25.89,59.73-25.35,0,0,12.88.19,16.32.19h0s0,0,0,0c7.29,0,31.48,6.84,40.08,11.01,14.57,7.07,63.45,46.28,68.75,111.28Z"/>
  <path d="M404.2,272.96c.58-.08,2.35,2.38,3.33,4.13,1.85,3.29,2.41,6.8,2.38,10,5.08,40.94,10.16,81.89,15.24,122.83,35.55-10.74,71.1-21.48,106.65-32.22-3.83-23.77-6.95-42.78-8.89-54.59-13.59-82.73-17.86-105.27-36.18-127.59-7.92-9.65-20.3-24.31-41.26-29.2-32.01-7.47-59.5,13.59-64.75,17.77-2.96-26.03-5.92-52.05-8.89-78.08-34.7,13.33-69.4,26.66-104.11,39.99,16.93,127.17,33.86,254.34,50.78,381.51,35.55-13.17,71.1-26.34,106.65-39.52-19.91-167.84-23.37-214.7-20.95-215.04ZM387.78,238.59c-12.34,3.78-17.06,21.53-18.86,28.29-11.23,42.19,28.35,189.2,32.9,205.89-19.2,6.67-38.41,13.33-57.61,20-13.05-107.29-26.1-214.59-39.15-321.88,17.49-12.11,34.97-24.23,52.46-36.34,3.97,29.11,7.95,58.21,11.92,87.32,6.9-7.23,29.34-28.88,63.34-30.84,8.14-.47,21.51-1.24,34.89,5.87,30.13,16.02,33.76,58.21,36.04,77.34,4.58,38.54-8.17,68.77-14.78,81.99-12,3.93-24,7.85-36,11.78-3.2-38.91-5.33-69.21-6.43-94.27-.29-6.55-1.22-16.72-8.57-23.57-4.52-4.21-14.22-6.15-33.43-9.86-12.83-2.48-14.72-2.33-16.71-1.71Z"/>
  <g>
    <path d="M930.84,122.67c-11.82-21.5-22.26-29.51-30.56-33.76-10.16-5.2-19.43-6.04-23.8-6.39-25.78-2.06-83.27-3.26-159.02-2.54,2.18,65.08,2.68,133.3.95,204.41-1.1,45.52-3.06,89.77-5.71,132.67h113.79c.37-29.84.74-59.67,1.11-89.51,7.69.33,66.25,1.94,101.25-41.9,23.69-29.67,23.77-64.1,23.81-83.16,0,0,.08-39.99-21.82-79.83ZM924.61,251.06c-11.62,23.5-28.17,36.14-32.06,39.01-33.8,24.94-71.97,20.71-81.62,19.35-.42,30.17-.83,60.34-1.25,90.51h-79.21c1.48-99.45,2.96-198.9,4.44-298.36,70.44-6.08,122.96-5.92,138.82-.92,6.33,1.99,11.97,4.72,11.97,4.72,0,0,14.57,7.04,26.5,19.55,17.68,18.55,37.43,75.49,12.39,126.14Z"/>
    <path class="st1" d="M912.22,124.92c-11.93-12.52-26.5-19.55-26.5-19.55,0,0-5.64-2.72-11.97-4.72-15.87-5-68.39-5.16-138.82.92-1.48,99.45-2.96,198.9-4.44,298.36h79.21c.42-30.17.83-60.34,1.25-90.51,9.65,1.36,47.81,5.59,81.62-19.35,3.89-2.87,20.44-15.51,32.06-39.01,25.04-50.66,5.29-107.59-12.39-126.14ZM857.33,210.31c-5.87,12.53-23.07,19.6-42.42,15.68v-49.51c20.37-4.58,38.07,2.88,43.17,15.24,3.65,8.86-.27,17.57-.75,18.6Z"/>
    <path d="M814.91,176.47v49.51c19.34,3.92,36.55-3.15,42.42-15.68.48-1.03,4.4-9.74.75-18.6-5.1-12.36-22.79-19.82-43.17-15.24Z"/>
  </g>
  <g>
    <path class="st0" d="M707.4,307.06c-.25.1-.5.19-.75.28.25-.09.5-.19.75-.28Z"/>
    <path class="st0" d="M699.87,309.73c-.62.2-1.26.4-1.9.6.64-.2,1.27-.4,1.9-.6Z"/>
    <path class="st0" d="M687.86,313.11c-1.78.42-3.52.8-5.25,1.14,1.78-.36,3.54-.73,5.25-1.14Z"/>
    <path class="st0" d="M691.76,312.12c-1.21.32-2.44.64-3.69.93,1.25-.3,2.48-.61,3.69-.93Z"/>
    <path class="st0" d="M696,310.94c-.98.29-1.97.57-2.98.85,1.01-.28,2-.56,2.98-.85Z"/>
    <path class="st0" d="M702.97,308.68c-.39.14-.78.28-1.18.41.4-.14.79-.27,1.18-.41Z"/>
    <path class="st0" d="M710.05,306.01c-.18.07-.36.15-.54.22.18-.07.36-.15.54-.22Z"/>
    <path class="st0" d="M577.97,126.17c.76,35.24,1.19,56.88,1.43,69.51-.06-17.05-.35-40.79-1.43-69.51Z"/>
    <path class="st0" d="M714.53,304.11c-.34.15-.68.3-1.03.45.34-.15.69-.3,1.03-.45Z"/>
    <path class="st0" d="M718.42,302.32c-.79.38-1.61.76-2.44,1.14.83-.38,1.65-.76,2.44-1.14Z"/>
    <path class="st0" d="M519.41,309.94c-.06-.06-.11-.13-.16-.19,5.49,6.77,13.11,13.81,23.49,18.76,5.51,2.62,11.01,4.28,16.38,5.22-22.09-5.03-35.68-19.21-39.71-23.79Z"/>
    <path class="st0" d="M607.42,255.41s.09-.02.13-.02c-5.43.5-10.81-.15-15.3-2.07.02.01.04.03.06.04,5.16,2.95,10.94,2.74,15.11,2.05Z"/>
    <path class="st0" d="M682.26,314.32c-1.74.34-3.46.65-5.14.92,1.75-.28,3.46-.59,5.14-.92Z"/>
    <path class="st0" d="M718.42,302.32c1.02-14.21,2.12-35.29,1.9-60.94-.11-12.69-.51-22.94-.92-31.32.44,32,.05,62.79-.98,92.26Z"/>
    <path class="st0" d="M634.24,217.87s0,0,0-.01c.33,8.06.44,13.29.11,17.03,1.25-5.43.54-11.07-.11-17.01Z"/>
    <path class="st0" d="M674.69,315.62c.79-.11,1.56-.24,2.33-.36-8.54,1.37-16.27,1.86-22.91,1.91,6.25-.04,13.15-.47,20.58-1.54Z"/>
    <path class="st0" d="M653.51,317.16c-1.24,0-2.46,0-3.62-.03,1.18.02,2.39.03,3.62.03Z"/>
    <path class="st0" d="M648.19,297.84s-.05.05-.07.08c.02-.03.05-.05.07-.08Z"/>
    <path class="st0" d="M650.82,294.71c-.42.52-.89,1.08-1.36,1.64.48-.57.94-1.12,1.36-1.64Z"/>
    <path d="M733.66,121.88c.08-4.08.34-16.19-3.81-31.11-1.54-5.52-3.25-9.9-4.44-12.7-39.46,4.44-78.93,8.89-118.39,13.33,2.97,29.33,5.39,59.65,7.14,90.94.79,14.1,1.42,28.01,1.9,41.74.95,3.7-.22,7.35-2.81,9.13-3.35,2.28-7.49.34-8.14.08-5.67-2.31-6.88-8.74-6.97-9.24-1.09-12.74-1.89-26.01-2.32-39.78-.9-28.61-.1-55.36,1.76-79.96-41.77,5.38-83.54,10.76-125.31,16.14-1.23,30.44-.69,57.92.74,82.01,7.33,8.38,15.59,21.42,23.41,45.39,5.13-5.32,23.05-25.21,23.35-54.69.13-13.13-3.27-23.76-6.21-30.64,20.43-7.86,40.86-15.71,61.29-23.57-2.81,13.79-5.18,29.84-6.21,47.79-.97,16.73-.59,31.93.43,45.21,3.51,6.04,14.78,23.59,35.36,28.5,10.86,2.59,27.12,2.33,30.62-4.61,1.06-2.1.69-4.3,3.24-14.03.59-2.26,1.13-4.11,1.5-5.36-2.49-4.18-5.5-10.65-5.54-18.59-.07-15.04,10.61-18,12.18-32.62,1.63-15.16-9.02-19.79-8.57-38.14.24-9.81,3.5-17.67,6-22.5,23.64-4.07,47.29-8.14,70.93-12.21-8.69,16.49-12.38,30.71-14.14,40.29-3.47,18.87-2.38,35.66-.86,58.93.46,6.99.6,6.62,2.01,23.29,1.61,19.09,2.69,34.62,3.35,44.85,1.19,5.95-.09,9.41-1.29,11.36-1.56,2.55-3.02,2.42-7.85,6.82-5.75,5.25-6.77,7.07-7.93,6.64-2.16-.8-.06-7.6-2.83-9.03-2.61-1.35-6.42,3.68-11.39,2.31-1.31-.36-2.25-1.05-2.79-1.49-6.75-.55-13.5-1.1-20.25-1.64-.42.52-.88,1.07-1.36,1.64-.4.48-.83.98-1.27,1.49,0,0-.04.05-.07.08-.72.83-18.4-12.04-29.77-12.18-22.81-.28-47.93,50.42-57.04,48.48-.12-.03-1.06-.3-2.19-.5-5.37-.94-10.87-2.6-16.38-5.22-10.38-4.94-18-11.99-23.49-18.76-5.37-6.13-9.19-12.57-12.09-19.22,2.77,14.48,5.23,31.52,6.54,50.81,5,3.96,14.05,10.19,26.6,13.57,17.96,4.84,41.96,3.54,61.98-5.88,7.35-3.46,16.56-9.14,30.93-10.05,5.74-.37,10.5.14,13.66.64,13.67-1.35,24.88-3.26,33-4.88,16.41-3.27,30.13-7.1,40.5-10.04,4.19-1.19,7.67-2.22,10.13-2.96-.36-51.73,1.39-90.2,3.17-116.7,1.86-27.66-.53-55.44,0-83.16Z"/>
  </g>
  <path d="M1023.13,0c-37.03,1.06-74.06,2.12-111.09,3.17.53,23.19,1.06,46.38,1.58,69.57.42,18.42.84,36.83,1.26,55.25,10.68,22.21,32.95,76.1,9.73,123.06-2.09,4.24-4.35,8.11-6.66,11.65.36,15.69.71,31.38,1.07,47.08h109.82c-1.9-103.26-3.81-206.52-5.71-309.78ZM949.21,69.74c1.15-8.71,2.31-17.43,3.46-26.14,15.28-3.86,30.55-7.71,45.83-11.57,2.08,15.99,4.15,31.97,6.23,47.96-18.5-3.42-37.01-6.83-55.51-10.25ZM989.06,260.02h-39.86c4.86-49.29,9.71-98.57,14.57-147.86l31.71-1.29c-2.14,49.71-4.29,99.43-6.43,149.14Z"/>
  <path class="st1" d="M294.86,310.53c14.49,77.96-3.28,161.88-69.75,207.16,94.39,29.68,143.51,140.14,98.34,228.55-18.26,35.74-66.28,44.26-99.31,32.3l40.8,123.84-105.64,39.23-117.24-362.48,94.23-32.79c2.64,2.38,8.69,8.77,10.13,6.52,2.18-3.39,7.29-11.37,6.9-10.76-50.92.06-87.33-28.29-108.1-71.54-34.18-71.16-32.87-152.62-9.4-228.41,15.9-51.33,47.91-93.79,95.74-117.79,40.59-20.37,85.76-11.69,116.88,21.84,18.85,20.31,30.6,45.49,40.65,73.24l-85.34,47.89c-7.63-15.58-16.77-34.68-28.88-41.93-6.26-3.75-12.48-5.32-18.39-5.2-19.93.41-32.44,24.4-37.12,33.11-5.72,10.66-12.77,28.61-11.62,63.2.36,10.93,3.37,101.33,43.41,114.09,7.17,2.28,20.71,3.73,34.67.73,6.54-1.4,12.41-2.73,17.83-7.42,3.16-2.73,8.18-8.33,11.43-26.34,1.78-9.83,3.33-25.03.47-44.05l79.29-43ZM197.86,618.08c-2.83-3.39-16.3-7.46-18.64-3.78-8.92,14.01,11.25,91.04,35.89,96.47,15.6,3.44,11.39-58.41-17.24-92.7Z"/>
  <path class="st1" d="M406.35,474.05l-69.56,24.87-47.49-338.19,68.09-26.17,11.64,87.49c20.64-31.1,54.56-48.88,88.85-37.03,20.06,6.93,27.73,33.6,38.68,53.67l-2.72-99.81,83.83-11.83,3.33,114.77c.24,8.24,20.04,15.05,27.87,14.18,7.82-.87,26.53-9.43,26.33-17.49l-3.15-126.96,83.08-10.75,5.43,202.76-52.73,10.45c-3.19.63-13.21,1.56-14.2-1.42l-5.33-16.06c-24.55,29.37-64.87,46.57-106.56,34.54-15.05-4.34-26.13-23.29-33.43-36.59l3.48,69.94-67.17,20.82-21.52-119.62c-1.44-7.98-22.24-8.33-27.81-3.58-6.46,5.51-12,17.87-10.84,27.64l21.91,184.37Z"/>
  <path class="st1" d="M944.46,571.58c.72-4.64-8.35-21.45-12.54-19.36-4.19,2.09-14.77,10.45-16.04,17.47l-22.8,125.88-82.56-9.67,20.59-119.87c1.36-7.94-2.37-28.32-10.14-29.52-12.9-.11-22.14,17.78-23.9,28.48l-19.11,116.16-82.57-14.07,30.79-225.05c13.59,1.76,21.21,6.96,25.59,15.66,22.09-4.74,52.03-4.36,66.34,22.78,33.95-22.4,71.8-15.91,98.97,13.03,26.5-19.43,63.49-20.29,88.83-6.1,9.63,5.39,27.27,24.69,26.68,35.03-3.8,66.54-14.38,128.92-27.16,192.27l-81.26-12.51,20.27-130.59Z"/>
  <path class="st1" d="M885.81,292.75c-23.67,11.98-48.83,14.97-77.32,15.43l-1.52,89.48-72.9,1.34.72-299.47,118.52-1.26c31.52-.34,55.81,14.26,71.41,41.66,17.79,59.06,17.34,124.35-38.91,152.83ZM856.49,217.62c9.79-6.99,5.82-35.87-5.37-37.18l-38.08-4.44.87,54.87c16.2-2.18,31.34-5.23,42.59-13.25Z"/>
  <path class="st1" d="M466.71,608.36l-7.74-121.35,82.87-11.33,2.43,114.37c.17,7.76,18.68,16.34,26.12,14.95,8.29-1.54,26.67-12.19,26.41-20.78l-3.77-124.24,80.42-9.27,3.81,201.84-62.65,12.73-5.31-19.54c-24.74,28.13-67.43,48.58-105.5,31.16-22.17-10.15-35.48-43.3-37.09-68.54Z"/>
  <polygon class="st1" points="577.67 754.55 364.18 798.9 346.6 668.74 331.5 565.29 420.35 550.2 442.18 715.8 565.74 692.74 577.67 754.55"/>
  <polygon class="st1" points="1008.96 287.85 939.02 289.59 939.02 97.4 1006.68 95.78 1008.96 287.85"/>
  <polygon class="st1" points="1006.67 81.15 935.33 81.8 933.14 25.49 1005.34 24.34 1006.67 81.15"/>
  <path d="M197.86,618.08c28.64,34.29,32.84,96.13,17.24,92.7-24.63-5.43-44.81-82.46-35.89-96.47,2.35-3.68,15.81.39,18.64,3.78Z"/>
  <path d="M856.49,217.62c-11.24,8.03-26.39,11.07-42.59,13.25l-.87-54.87,38.08,4.44c11.2,1.31,15.17,30.19,5.37,37.18Z"/>
</svg>